<?xml version="1.0" encoding="UTF-8" standalone="no"?>
<!-- Created with Inkscape (http://www.inkscape.org/) -->

<svg
   xmlns:dc="http://purl.org/dc/elements/1.1/"
   xmlns:cc="http://creativecommons.org/ns#"
   xmlns:rdf="http://www.w3.org/1999/02/22-rdf-syntax-ns#"
   xmlns:svg="http://www.w3.org/2000/svg"
   xmlns="http://www.w3.org/2000/svg"
   xmlns:sodipodi="http://sodipodi.sourceforge.net/DTD/sodipodi-0.dtd"
   xmlns:inkscape="http://www.inkscape.org/namespaces/inkscape"
   width="210mm"
   height="297mm"
   viewBox="0 0 744.09448819 1052.3622047"
   id="svg2"
   version="1.1"
   inkscape:version="0.91 r13725"
   sodipodi:docname="concur-logo-all.svg">
  <defs
     id="defs4" />
  <sodipodi:namedview
     id="base"
     pagecolor="#ffffff"
     bordercolor="#666666"
     borderopacity="1.0"
     inkscape:pageopacity="0.0"
     inkscape:pageshadow="2"
     inkscape:zoom="0.175"
     inkscape:cx="-70.974371"
     inkscape:cy="-677.55472"
     inkscape:document-units="px"
     inkscape:current-layer="layer1"
     showgrid="false"
     showguides="true"
     inkscape:guide-bbox="true"
     inkscape:window-width="3356"
     inkscape:window-height="1846"
     inkscape:window-x="4"
     inkscape:window-y="0"
     inkscape:window-maximized="1" />
  <metadata
     id="metadata7">
    <rdf:RDF>
      <cc:Work
         rdf:about="">
        <dc:format>image/svg+xml</dc:format>
        <dc:type
           rdf:resource="http://purl.org/dc/dcmitype/StillImage" />
        <dc:title />
      </cc:Work>
    </rdf:RDF>
  </metadata>
  <g
     inkscape:label="Layer 1"
     inkscape:groupmode="layer"
     id="layer1">
    <g
       id="g4254"
       transform="matrix(0.43538202,0,0,0.43538202,-915.40296,-595.20579)">
      <g
         id="g4256"
         transform="translate(0,6.18756)">
        <path
           sodipodi:nodetypes="cccccccccccccccccccccccccccccccccccccccc"
           inkscape:connector-curvature="0"
           id="path4258"
           d="m 851.1805,76.305151 -195.9694,195.969399 -5.94688,7.17603 -4.51333,8.15382 -2.92096,8.85127 -1.22639,9.23934 0.50824,9.30564 2.22766,9.05014 3.86837,8.47838 5.37236,7.6152 6.69403,6.48412 7.78093,5.12928 8.59853,3.5963 9.11505,1.93902 9.31807,0.21406 9.19515,-1.52194 8.75321,-3.19855 8.00605,-4.76882 5.88059,-5.03262 160.61405,-160.61405 162.63457,162.63455 7.176,5.94689 8.1539,4.51332 8.8498,2.91958 9.2394,1.22639 9.3056,-0.50823 9.0502,-2.2249 8.4783,-3.86838 7.6152,-5.37511 6.4855,-6.69266 5.1293,-7.78093 3.5963,-8.59853 1.9377,-9.11644 0.2126,-9.31668 -1.5191,-9.19515 -3.1986,-8.75321 -4.7702,-8.00744 -5.0312,-5.8792 L 921.89118,76.305144 Z"
           style="color:#000000;font-style:normal;font-variant:normal;font-weight:normal;font-stretch:normal;font-size:medium;line-height:normal;font-family:sans-serif;text-indent:0;text-align:start;text-decoration:none;text-decoration-line:none;text-decoration-style:solid;text-decoration-color:#000000;letter-spacing:normal;word-spacing:normal;text-transform:none;direction:ltr;block-progression:tb;writing-mode:lr-tb;baseline-shift:baseline;text-anchor:start;white-space:normal;clip-rule:nonzero;display:inline;overflow:visible;visibility:visible;opacity:1;isolation:auto;mix-blend-mode:normal;color-interpolation:sRGB;color-interpolation-filters:linearRGB;solid-color:#000000;solid-opacity:1;fill:#000000;fill-opacity:1;fill-rule:nonzero;stroke:none;stroke-width:100;stroke-linecap:round;stroke-linejoin:bevel;stroke-miterlimit:4;stroke-dasharray:400, 100;stroke-dashoffset:120;stroke-opacity:1;color-rendering:auto;image-rendering:auto;shape-rendering:auto;text-rendering:auto;enable-background:accumulate" />
        <path
           style="color:#000000;font-style:normal;font-variant:normal;font-weight:normal;font-stretch:normal;font-size:medium;line-height:normal;font-family:sans-serif;text-indent:0;text-align:start;text-decoration:none;text-decoration-line:none;text-decoration-style:solid;text-decoration-color:#000000;letter-spacing:normal;word-spacing:normal;text-transform:none;direction:ltr;block-progression:tb;writing-mode:lr-tb;baseline-shift:baseline;text-anchor:start;white-space:normal;clip-rule:nonzero;display:inline;overflow:visible;visibility:visible;opacity:1;isolation:auto;mix-blend-mode:normal;color-interpolation:sRGB;color-interpolation-filters:linearRGB;solid-color:#000000;solid-opacity:1;fill:#000000;fill-opacity:1;fill-rule:nonzero;stroke:none;stroke-width:100;stroke-linecap:round;stroke-linejoin:bevel;stroke-miterlimit:4;stroke-dasharray:400, 100;stroke-dashoffset:120;stroke-opacity:1;color-rendering:auto;image-rendering:auto;shape-rendering:auto;text-rendering:auto;enable-background:accumulate"
           d="m 924.26743,683.26381 195.96937,-195.96941 5.9469,-7.17603 4.5133,-8.15382 2.921,-8.85127 1.2264,-9.23934 -0.5082,-9.30564 -2.2277,-9.05014 -3.8684,-8.47838 -5.3723,-7.6152 -6.6941,-6.48412 -7.7809,-5.12928 -8.5985,-3.5963 -9.1151,-1.93902 -9.318,-0.21406 -9.1952,1.52194 -8.7532,3.19855 -8.0061,4.76882 -5.8805,5.03262 -160.6141,160.61405 -162.63456,-162.63455 -7.17603,-5.94688 -8.15382,-4.51333 -8.84988,-2.91957 -9.23934,-1.22639 -9.30565,0.50823 -9.05013,2.2249 -8.47838,3.86838 -7.61522,5.37512 -6.48549,6.69266 -5.12927,7.78092 -3.59631,8.59853 -1.93764,9.11643 -0.21268,9.31669 1.51917,9.19515 3.19855,8.75321 4.77021,8.00743 5.03123,5.87921 197.98989,197.98989 z"
           id="path4260"
           inkscape:connector-curvature="0"
           sodipodi:nodetypes="cccccccccccccccccccccccccccccccccccccccc" />
      </g>
      <path
         style="color:#000000;font-style:normal;font-variant:normal;font-weight:normal;font-stretch:normal;font-size:medium;line-height:normal;font-family:sans-serif;text-indent:0;text-align:start;text-decoration:none;text-decoration-line:none;text-decoration-style:solid;text-decoration-color:#000000;letter-spacing:normal;word-spacing:normal;text-transform:none;direction:ltr;block-progression:tb;writing-mode:lr-tb;baseline-shift:baseline;text-anchor:start;white-space:normal;clip-rule:nonzero;display:inline;overflow:visible;visibility:visible;opacity:1;isolation:auto;mix-blend-mode:normal;color-interpolation:sRGB;color-interpolation-filters:linearRGB;solid-color:#000000;solid-opacity:1;fill:#000000;fill-opacity:1;fill-rule:nonzero;stroke:none;stroke-width:100;stroke-linecap:round;stroke-linejoin:bevel;stroke-miterlimit:4;stroke-dasharray:400, 100;stroke-dashoffset:120;stroke-opacity:1;color-rendering:auto;image-rendering:auto;shape-rendering:auto;text-rendering:auto;enable-background:accumulate"
         d="m 789.21248,435.97205 195.66803,10e-6 c 27.53119,0 27.91009,-100.00004 0,-100.00004 l -195.41956,-10e-6 c -26.20412,0 -26.20412,100.00005 -0.24847,100.00004 z"
         id="path4262"
         inkscape:connector-curvature="0"
         sodipodi:nodetypes="sssss" />
      <path
         style="color:#000000;font-style:normal;font-variant:normal;font-weight:normal;font-stretch:normal;font-size:medium;line-height:normal;font-family:sans-serif;text-indent:0;text-align:start;text-decoration:none;text-decoration-line:none;text-decoration-style:solid;text-decoration-color:#000000;letter-spacing:normal;word-spacing:normal;text-transform:none;direction:ltr;block-progression:tb;writing-mode:lr-tb;baseline-shift:baseline;text-anchor:start;white-space:normal;clip-rule:nonzero;display:inline;overflow:visible;visibility:visible;opacity:1;isolation:auto;mix-blend-mode:normal;color-interpolation:sRGB;color-interpolation-filters:linearRGB;solid-color:#000000;solid-opacity:1;fill:#000000;fill-opacity:1;fill-rule:nonzero;stroke:none;stroke-width:100;stroke-linecap:round;stroke-linejoin:bevel;stroke-miterlimit:4;stroke-dasharray:400, 100;stroke-dashoffset:120;stroke-opacity:1;color-rendering:auto;image-rendering:auto;shape-rendering:auto;text-rendering:auto;enable-background:accumulate"
         d="m 238.26596,435.97205 349.23946,10e-6 c 27.53123,0 27.91013,-100.00003 0,-100.00003 l -348.99099,-1e-5 c -26.20412,0 -26.20412,100.00003 -0.24847,100.00003 z"
         id="path4264"
         inkscape:connector-curvature="0"
         sodipodi:nodetypes="sssss" />
      <path
         style="color:#000000;font-style:normal;font-variant:normal;font-weight:normal;font-stretch:normal;font-size:medium;line-height:normal;font-family:sans-serif;text-indent:0;text-align:start;text-decoration:none;text-decoration-line:none;text-decoration-style:solid;text-decoration-color:#000000;letter-spacing:normal;word-spacing:normal;text-transform:none;direction:ltr;block-progression:tb;writing-mode:lr-tb;baseline-shift:baseline;text-anchor:start;white-space:normal;clip-rule:nonzero;display:inline;overflow:visible;visibility:visible;opacity:1;isolation:auto;mix-blend-mode:normal;color-interpolation:sRGB;color-interpolation-filters:linearRGB;solid-color:#000000;solid-opacity:1;fill:#000000;fill-opacity:1;fill-rule:nonzero;stroke:none;stroke-width:100;stroke-linecap:round;stroke-linejoin:bevel;stroke-miterlimit:4;stroke-dasharray:400, 100;stroke-dashoffset:120;stroke-opacity:1;color-rendering:auto;image-rendering:auto;shape-rendering:auto;text-rendering:auto;enable-background:accumulate"
         d="m 381.83739,689.45136 318.52517,10e-6 c 27.53123,0 27.91013,-100.00004 0,-100.00004 l -318.2767,-10e-6 c -26.20412,0 -26.20412,100.00004 -0.24847,100.00004 z"
         id="path4266"
         inkscape:connector-curvature="0"
         sodipodi:nodetypes="sssss" />
      <path
         sodipodi:nodetypes="sssss"
         inkscape:connector-curvature="0"
         id="path4268"
         d="m 381.83739,182.49274 318.52517,1e-5 c 27.53123,0 27.91013,-100.000036 0,-100.000036 l -318.2767,-1e-5 c -26.20412,0 -26.20412,100.000036 -0.24847,100.000036 z"
         style="color:#000000;font-style:normal;font-variant:normal;font-weight:normal;font-stretch:normal;font-size:medium;line-height:normal;font-family:sans-serif;text-indent:0;text-align:start;text-decoration:none;text-decoration-line:none;text-decoration-style:solid;text-decoration-color:#000000;letter-spacing:normal;word-spacing:normal;text-transform:none;direction:ltr;block-progression:tb;writing-mode:lr-tb;baseline-shift:baseline;text-anchor:start;white-space:normal;clip-rule:nonzero;display:inline;overflow:visible;visibility:visible;opacity:1;isolation:auto;mix-blend-mode:normal;color-interpolation:sRGB;color-interpolation-filters:linearRGB;solid-color:#000000;solid-opacity:1;fill:#000000;fill-opacity:1;fill-rule:nonzero;stroke:none;stroke-width:100;stroke-linecap:round;stroke-linejoin:bevel;stroke-miterlimit:4;stroke-dasharray:400, 100;stroke-dashoffset:120;stroke-opacity:1;color-rendering:auto;image-rendering:auto;shape-rendering:auto;text-rendering:auto;enable-background:accumulate" />
    </g>
    <rect
       ry="0"
       y="-952.48627"
       x="-1808.5756"
       height="64.64978"
       width="1109.1475"
       id="rect4335"
       style="opacity:1;fill:none;fill-opacity:1;stroke:#000000;stroke-width:56.5;stroke-linecap:round;stroke-linejoin:bevel;stroke-miterlimit:4;stroke-dasharray:113, 226;stroke-dashoffset:22.60000038;stroke-opacity:1" />
    <g
       id="g4426"
       transform="translate(-2777.1429,-657.14284)">
      <g
         id="g4428"
         transform="matrix(1.6129886,0,0,1,-409.12909,-27.929246)">
        <path
           sodipodi:nodetypes="cccccccc"
           inkscape:connector-curvature="0"
           id="path4430"
           d="M 851.1805,76.305151 593.01219,344.77094 724.28064,345.12808 886.53583,182.37117 1049.1704,345.00572 1165.9403,344.88316 921.89118,76.305144 Z"
           style="color:#000000;font-style:normal;font-variant:normal;font-weight:normal;font-stretch:normal;font-size:medium;line-height:normal;font-family:sans-serif;text-indent:0;text-align:start;text-decoration:none;text-decoration-line:none;text-decoration-style:solid;text-decoration-color:#000000;letter-spacing:normal;word-spacing:normal;text-transform:none;direction:ltr;block-progression:tb;writing-mode:lr-tb;baseline-shift:baseline;text-anchor:start;white-space:normal;clip-rule:nonzero;display:inline;overflow:visible;visibility:visible;opacity:1;isolation:auto;mix-blend-mode:normal;color-interpolation:sRGB;color-interpolation-filters:linearRGB;solid-color:#000000;solid-opacity:1;fill:#000000;fill-opacity:1;fill-rule:nonzero;stroke:none;stroke-width:100;stroke-linecap:round;stroke-linejoin:bevel;stroke-miterlimit:4;stroke-dasharray:400, 100;stroke-dashoffset:120;stroke-opacity:1;color-rendering:auto;image-rendering:auto;shape-rendering:auto;text-rendering:auto;enable-background:accumulate" />
      </g>
      <g
         transform="matrix(1.6129886,0,0,-1,-409.12909,835.95079)"
         id="g4432">
        <path
           style="color:#000000;font-style:normal;font-variant:normal;font-weight:normal;font-stretch:normal;font-size:medium;line-height:normal;font-family:sans-serif;text-indent:0;text-align:start;text-decoration:none;text-decoration-line:none;text-decoration-style:solid;text-decoration-color:#000000;letter-spacing:normal;word-spacing:normal;text-transform:none;direction:ltr;block-progression:tb;writing-mode:lr-tb;baseline-shift:baseline;text-anchor:start;white-space:normal;clip-rule:nonzero;display:inline;overflow:visible;visibility:visible;opacity:1;isolation:auto;mix-blend-mode:normal;color-interpolation:sRGB;color-interpolation-filters:linearRGB;solid-color:#000000;solid-opacity:1;fill:#000000;fill-opacity:1;fill-rule:nonzero;stroke:none;stroke-width:100;stroke-linecap:round;stroke-linejoin:bevel;stroke-miterlimit:4;stroke-dasharray:400, 100;stroke-dashoffset:120;stroke-opacity:1;color-rendering:auto;image-rendering:auto;shape-rendering:auto;text-rendering:auto;enable-background:accumulate"
           d="M 851.1805,76.305151 593.01219,344.77094 724.28064,345.12808 886.53583,182.37117 1049.1704,345.00572 1165.9403,344.88316 921.89118,76.305144 Z"
           id="path4434"
           inkscape:connector-curvature="0"
           sodipodi:nodetypes="cccccccc" />
      </g>
      <rect
         style="opacity:1;fill:none;fill-opacity:1;stroke:#000000;stroke-width:57.3299675;stroke-linecap:round;stroke-linejoin:bevel;stroke-miterlimit:4;stroke-dasharray:114.659935, 229.31987;stroke-dashoffset:148.48461914;stroke-opacity:1"
         id="rect4436"
         width="1156.8052"
         height="63.820137"
         x="287.29819"
         y="372.10071"
         ry="0" />
      <path
         sodipodi:nodetypes="ccccc"
         inkscape:connector-curvature="0"
         id="path4438"
         d="m 525.39067,759.64565 378.24991,0 -161.16316,-109.74048 -378.24991,0 z"
         style="opacity:1;fill:#000000;fill-opacity:1;stroke:none;stroke-width:60;stroke-linecap:butt;stroke-linejoin:miter;stroke-miterlimit:4;stroke-dasharray:none;stroke-dashoffset:34.20000076;stroke-opacity:1" />
      <path
         style="opacity:1;fill:#000000;fill-opacity:1;stroke:none;stroke-width:60;stroke-linecap:butt;stroke-linejoin:miter;stroke-miterlimit:4;stroke-dasharray:none;stroke-dashoffset:34.20000076;stroke-opacity:1"
         d="m 525.39067,48.375898 378.24991,0 -161.16316,109.740482 -378.24991,0 z"
         id="path4440"
         inkscape:connector-curvature="0"
         sodipodi:nodetypes="ccccc" />
    </g>
    <g
       id="g4499"
       transform="translate(-120,97.142857)">
      <g
         transform="matrix(0,-1.6129886,1,0,-856.92375,1756.7276)"
         id="g4197">
        <path
           style="color:#000000;font-style:normal;font-variant:normal;font-weight:normal;font-stretch:normal;font-size:medium;line-height:normal;font-family:sans-serif;text-indent:0;text-align:start;text-decoration:none;text-decoration-line:none;text-decoration-style:solid;text-decoration-color:#000000;letter-spacing:normal;word-spacing:normal;text-transform:none;direction:ltr;block-progression:tb;writing-mode:lr-tb;baseline-shift:baseline;text-anchor:start;white-space:normal;clip-rule:nonzero;display:inline;overflow:visible;visibility:visible;opacity:1;isolation:auto;mix-blend-mode:normal;color-interpolation:sRGB;color-interpolation-filters:linearRGB;solid-color:#000000;solid-opacity:1;fill:#000000;fill-opacity:1;fill-rule:nonzero;stroke:none;stroke-width:100;stroke-linecap:round;stroke-linejoin:bevel;stroke-miterlimit:4;stroke-dasharray:400, 100;stroke-dashoffset:120;stroke-opacity:1;color-rendering:auto;image-rendering:auto;shape-rendering:auto;text-rendering:auto;enable-background:accumulate"
           d="M 851.1805,76.305151 593.01219,344.77094 724.28064,345.12808 886.53583,182.37117 1049.1704,345.00572 1165.9403,344.88316 921.89118,76.305144 Z"
           id="rect4136"
           inkscape:connector-curvature="0"
           sodipodi:nodetypes="cccccccc" />
      </g>
      <g
         id="g4283"
         transform="matrix(0,-1.6129886,-1,0,6.95629,1756.7276)">
        <path
           sodipodi:nodetypes="cccccccc"
           inkscape:connector-curvature="0"
           id="path4285"
           d="M 851.1805,76.305151 593.01219,344.77094 724.28064,345.12808 886.53583,182.37117 1049.1704,345.00572 1165.9403,344.88316 921.89118,76.305144 Z"
           style="color:#000000;font-style:normal;font-variant:normal;font-weight:normal;font-stretch:normal;font-size:medium;line-height:normal;font-family:sans-serif;text-indent:0;text-align:start;text-decoration:none;text-decoration-line:none;text-decoration-style:solid;text-decoration-color:#000000;letter-spacing:normal;word-spacing:normal;text-transform:none;direction:ltr;block-progression:tb;writing-mode:lr-tb;baseline-shift:baseline;text-anchor:start;white-space:normal;clip-rule:nonzero;display:inline;overflow:visible;visibility:visible;opacity:1;isolation:auto;mix-blend-mode:normal;color-interpolation:sRGB;color-interpolation-filters:linearRGB;solid-color:#000000;solid-opacity:1;fill:#000000;fill-opacity:1;fill-rule:nonzero;stroke:none;stroke-width:100;stroke-linecap:round;stroke-linejoin:bevel;stroke-miterlimit:4;stroke-dasharray:400, 100;stroke-dashoffset:120;stroke-opacity:1;color-rendering:auto;image-rendering:auto;shape-rendering:auto;text-rendering:auto;enable-background:accumulate" />
      </g>
      <path
         style="opacity:1;fill:#000000;fill-opacity:1;stroke:none;stroke-width:60;stroke-linecap:butt;stroke-linejoin:miter;stroke-miterlimit:4;stroke-dasharray:none;stroke-dashoffset:34.20000076;stroke-opacity:1"
         d="m -69.34885,822.20783 0,-378.24991 -109.74048,161.16316 0,378.24991 z"
         id="path4379"
         inkscape:connector-curvature="0"
         sodipodi:nodetypes="ccccc" />
      <path
         sodipodi:nodetypes="ccccc"
         inkscape:connector-curvature="0"
         id="path4394"
         d="m -780.6186,822.20783 0,-378.24991 109.74048,161.16316 0,378.24991 z"
         style="opacity:1;fill:#000000;fill-opacity:1;stroke:none;stroke-width:60;stroke-linecap:butt;stroke-linejoin:miter;stroke-miterlimit:4;stroke-dasharray:none;stroke-dashoffset:34.20000076;stroke-opacity:1" />
      <rect
         transform="matrix(0,-1,1,0,0,0)"
         y="-473.77515"
         x="-801.88422"
         height="97.14286"
         width="925.71436"
         id="rect4449"
         style="opacity:1;fill:#000000;fill-opacity:1;stroke:none;stroke-width:57.3299675;stroke-linecap:butt;stroke-linejoin:miter;stroke-miterlimit:4;stroke-dasharray:114.659935, 229.31987;stroke-dashoffset:148.48461914;stroke-opacity:1" />
    </g>
    <g
       id="g4610"
       transform="translate(1692.9797,-1379.3246)">
      <g
         transform="matrix(0,-1.6129886,1,0,-1726.2392,1764.5549)"
         id="g4478">
        <path
           style="color:#000000;font-style:normal;font-variant:normal;font-weight:normal;font-stretch:normal;font-size:medium;line-height:normal;font-family:sans-serif;text-indent:0;text-align:start;text-decoration:none;text-decoration-line:none;text-decoration-style:solid;text-decoration-color:#000000;letter-spacing:normal;word-spacing:normal;text-transform:none;direction:ltr;block-progression:tb;writing-mode:lr-tb;baseline-shift:baseline;text-anchor:start;white-space:normal;clip-rule:nonzero;display:inline;overflow:visible;visibility:visible;opacity:1;isolation:auto;mix-blend-mode:normal;color-interpolation:sRGB;color-interpolation-filters:linearRGB;solid-color:#000000;solid-opacity:1;fill:#000000;fill-opacity:1;fill-rule:nonzero;stroke:none;stroke-width:100;stroke-linecap:round;stroke-linejoin:bevel;stroke-miterlimit:4;stroke-dasharray:400, 100;stroke-dashoffset:120;stroke-opacity:1;color-rendering:auto;image-rendering:auto;shape-rendering:auto;text-rendering:auto;enable-background:accumulate"
           d="M 851.1805,76.305151 593.01219,344.77094 724.28064,345.12808 886.53583,182.37117 1049.1704,345.00572 1165.9403,344.88316 921.89118,76.305144 Z"
           id="path4480"
           inkscape:connector-curvature="0"
           sodipodi:nodetypes="cccccccc" />
      </g>
      <g
         id="g4482"
         transform="matrix(0,-1.6129886,-1,0,-862.35921,1764.5549)">
        <path
           sodipodi:nodetypes="cccccccc"
           inkscape:connector-curvature="0"
           id="path4484"
           d="M 851.1805,76.305151 593.01219,344.77094 724.28064,345.12808 886.53583,182.37117 1049.1704,345.00572 1165.9403,344.88316 921.89118,76.305144 Z"
           style="color:#000000;font-style:normal;font-variant:normal;font-weight:normal;font-stretch:normal;font-size:medium;line-height:normal;font-family:sans-serif;text-indent:0;text-align:start;text-decoration:none;text-decoration-line:none;text-decoration-style:solid;text-decoration-color:#000000;letter-spacing:normal;word-spacing:normal;text-transform:none;direction:ltr;block-progression:tb;writing-mode:lr-tb;baseline-shift:baseline;text-anchor:start;white-space:normal;clip-rule:nonzero;display:inline;overflow:visible;visibility:visible;opacity:1;isolation:auto;mix-blend-mode:normal;color-interpolation:sRGB;color-interpolation-filters:linearRGB;solid-color:#000000;solid-opacity:1;fill:#000000;fill-opacity:1;fill-rule:nonzero;stroke:none;stroke-width:100;stroke-linecap:round;stroke-linejoin:bevel;stroke-miterlimit:4;stroke-dasharray:400, 100;stroke-dashoffset:120;stroke-opacity:1;color-rendering:auto;image-rendering:auto;shape-rendering:auto;text-rendering:auto;enable-background:accumulate" />
      </g>
      <path
         sodipodi:nodetypes="ccccccccccccccccccccccccccccccccccccccccccccccccccccccccccccccccccccccccccccccccccccccccccccccccccccccccccccccccccccccccccccccccccccccc"
         inkscape:connector-curvature="0"
         id="rect4486"
         d="m -1353.7598,889.22656 3.2578,7.19532 5.1407,6 6.6113,4.32226 7.5566,2.30274 7.8985,0.0977 7.6113,-2.11523 6.7168,-4.15625 5.2852,-5.8711 3.4355,-7.11328 1.3086,-7.79101 0.01,-0.69141 0,-167.83594 -1.1152,-7.82031 -3.2578,-7.19727 -5.1387,-5.99804 -6.6113,-4.32227 -7.5567,-2.30273 -7.8984,-0.0977 -7.6113,2.11328 -6.7168,4.15821 -5.2871,5.87109 -3.4336,7.11328 -1.3086,7.79102 -0.01,0.6914 0,167.83594 z m 0,-335.66992 3.2578,7.19531 5.1407,6 6.6113,4.32227 7.5566,2.30273 7.8985,0.0977 7.6113,-2.11523 6.7168,-4.15626 5.2852,-5.87109 3.4355,-7.11328 1.3086,-7.79102 0.01,-0.6914 0,-167.83594 -1.1152,-7.82031 -3.2578,-7.19727 -5.1387,-5.99804 -6.6113,-4.32227 -7.5567,-2.30273 -7.8984,-0.0977 -7.6113,2.11328 -6.7168,4.1582 -5.2871,5.8711 -3.4336,7.11328 -1.3086,7.79101 -0.01,0.69141 0,167.83594 z m 0,-335.66992 3.2578,7.19531 5.1407,6 6.6113,4.32227 7.5566,2.30273 7.8985,0.0977 7.6113,-2.11524 6.7168,-4.15625 5.2852,-5.87109 3.4355,-7.11328 1.3086,-7.79102 0.01,-0.6914 0,-167.835941 -1.1152,-7.820313 -3.2578,-7.197265 -5.1387,-5.998047 -6.6113,-4.322266 -7.5567,-2.302734 -7.8984,-0.09766 -7.6113,2.113281 -6.7168,4.158203 -5.2871,5.871094 -3.4336,7.113281 -1.3086,7.791015 -0.01,0.691407 0,167.835945 z m 65.2071,510.76758 3.2558,7.19726 5.1407,5.99805 6.6113,4.32227 7.5566,2.30273 7.8985,0.0977 7.6113,-2.11329 6.7168,-4.1582 5.2851,-5.87109 3.4356,-7.11328 1.3086,-7.79102 0.01,-0.69141 0,-167.83593 -1.1152,-7.82032 -3.2579,-7.19531 -5.1386,-6 -6.6114,-4.32226 -7.5566,-2.30274 -7.8984,-0.0977 -7.6114,2.11523 -6.7168,4.15625 -5.2871,5.87109 -3.4336,7.11328 -1.3086,7.79102 -0.01,0.69141 0,167.83593 z m 0,-335.66992 3.2558,7.19726 5.1407,5.99805 6.6113,4.32226 7.5566,2.30274 7.8985,0.0976 7.6113,-2.11328 6.7168,-4.1582 5.2851,-5.87109 3.4356,-7.11329 1.3086,-7.79101 0.01,-0.69141 0,-167.83594 -1.1152,-7.82031 -3.2579,-7.19531 -5.1386,-6 -6.6114,-4.32227 -7.5566,-2.30273 -7.8984,-0.0977 -7.6114,2.11524 -6.7168,4.15625 -5.2871,5.87109 -3.4336,7.11328 -1.3086,7.79102 -0.01,0.6914 0,167.83594 z"
         style="color:#000000;font-style:normal;font-variant:normal;font-weight:normal;font-stretch:normal;font-size:medium;line-height:normal;font-family:sans-serif;text-indent:0;text-align:start;text-decoration:none;text-decoration-line:none;text-decoration-style:solid;text-decoration-color:#000000;letter-spacing:normal;word-spacing:normal;text-transform:none;direction:ltr;block-progression:tb;writing-mode:lr-tb;baseline-shift:baseline;text-anchor:start;white-space:normal;clip-rule:nonzero;display:inline;overflow:visible;visibility:visible;opacity:1;isolation:auto;mix-blend-mode:normal;color-interpolation:sRGB;color-interpolation-filters:linearRGB;solid-color:#000000;solid-opacity:1;fill:#000000;fill-opacity:1;fill-rule:nonzero;stroke:none;stroke-width:55.94499207;stroke-linecap:round;stroke-linejoin:bevel;stroke-miterlimit:4;stroke-dasharray:167.8349762, 167.8349762;stroke-dashoffset:228.25556946;stroke-opacity:1;color-rendering:auto;image-rendering:auto;shape-rendering:auto;text-rendering:auto;enable-background:accumulate" />
      <path
         style="opacity:1;fill:#000000;fill-opacity:1;stroke:none;stroke-width:60;stroke-linecap:butt;stroke-linejoin:miter;stroke-miterlimit:4;stroke-dasharray:none;stroke-dashoffset:34.20000076;stroke-opacity:1"
         d="m -938.66435,830.03513 0,-378.24991 -109.74045,161.16316 0,378.24991 z"
         id="path4488"
         inkscape:connector-curvature="0"
         sodipodi:nodetypes="ccccc" />
      <path
         sodipodi:nodetypes="ccccc"
         inkscape:connector-curvature="0"
         id="path4490"
         d="m -1649.9341,830.03513 0,-378.24991 109.7405,161.16316 0,378.24991 z"
         style="opacity:1;fill:#000000;fill-opacity:1;stroke:none;stroke-width:60;stroke-linecap:butt;stroke-linejoin:miter;stroke-miterlimit:4;stroke-dasharray:none;stroke-dashoffset:34.20000076;stroke-opacity:1" />
    </g>
    <g
       id="g4508"
       transform="translate(2142.8571,-1417.1429)">
      <g
         id="g4510"
         transform="matrix(0,-1.6129886,1,0,-856.92375,1756.7276)">
        <path
           sodipodi:nodetypes="cccccccc"
           inkscape:connector-curvature="0"
           id="path4512"
           d="M 851.1805,76.305151 593.01219,344.77094 724.28064,345.12808 886.53583,182.37117 1049.1704,345.00572 1165.9403,344.88316 921.89118,76.305144 Z"
           style="color:#000000;font-style:normal;font-variant:normal;font-weight:normal;font-stretch:normal;font-size:medium;line-height:normal;font-family:sans-serif;text-indent:0;text-align:start;text-decoration:none;text-decoration-line:none;text-decoration-style:solid;text-decoration-color:#000000;letter-spacing:normal;word-spacing:normal;text-transform:none;direction:ltr;block-progression:tb;writing-mode:lr-tb;baseline-shift:baseline;text-anchor:start;white-space:normal;clip-rule:nonzero;display:inline;overflow:visible;visibility:visible;opacity:1;isolation:auto;mix-blend-mode:normal;color-interpolation:sRGB;color-interpolation-filters:linearRGB;solid-color:#000000;solid-opacity:1;fill:#000000;fill-opacity:1;fill-rule:nonzero;stroke:none;stroke-width:100;stroke-linecap:round;stroke-linejoin:bevel;stroke-miterlimit:4;stroke-dasharray:400, 100;stroke-dashoffset:120;stroke-opacity:1;color-rendering:auto;image-rendering:auto;shape-rendering:auto;text-rendering:auto;enable-background:accumulate" />
      </g>
      <g
         transform="matrix(0,-1.6129886,-1,0,6.95629,1756.7276)"
         id="g4514">
        <path
           style="color:#000000;font-style:normal;font-variant:normal;font-weight:normal;font-stretch:normal;font-size:medium;line-height:normal;font-family:sans-serif;text-indent:0;text-align:start;text-decoration:none;text-decoration-line:none;text-decoration-style:solid;text-decoration-color:#000000;letter-spacing:normal;word-spacing:normal;text-transform:none;direction:ltr;block-progression:tb;writing-mode:lr-tb;baseline-shift:baseline;text-anchor:start;white-space:normal;clip-rule:nonzero;display:inline;overflow:visible;visibility:visible;opacity:1;isolation:auto;mix-blend-mode:normal;color-interpolation:sRGB;color-interpolation-filters:linearRGB;solid-color:#000000;solid-opacity:1;fill:#000000;fill-opacity:1;fill-rule:nonzero;stroke:none;stroke-width:100;stroke-linecap:round;stroke-linejoin:bevel;stroke-miterlimit:4;stroke-dasharray:400, 100;stroke-dashoffset:120;stroke-opacity:1;color-rendering:auto;image-rendering:auto;shape-rendering:auto;text-rendering:auto;enable-background:accumulate"
           d="M 851.1805,76.305151 593.01219,344.77094 724.28064,345.12808 886.53583,182.37117 1049.1704,345.00572 1165.9403,344.88316 921.89118,76.305144 Z"
           id="path4516"
           inkscape:connector-curvature="0"
           sodipodi:nodetypes="cccccccc" />
      </g>
      <path
         sodipodi:nodetypes="ccccc"
         inkscape:connector-curvature="0"
         id="path4518"
         d="m -69.34885,822.20783 0,-378.24991 -109.74048,161.16316 0,378.24991 z"
         style="opacity:1;fill:#000000;fill-opacity:1;stroke:none;stroke-width:60;stroke-linecap:butt;stroke-linejoin:miter;stroke-miterlimit:4;stroke-dasharray:none;stroke-dashoffset:34.20000076;stroke-opacity:1" />
      <path
         style="opacity:1;fill:#000000;fill-opacity:1;stroke:none;stroke-width:60;stroke-linecap:butt;stroke-linejoin:miter;stroke-miterlimit:4;stroke-dasharray:none;stroke-dashoffset:34.20000076;stroke-opacity:1"
         d="m -780.6186,822.20783 0,-378.24991 109.74048,161.16316 0,378.24991 z"
         id="path4520"
         inkscape:connector-curvature="0"
         sodipodi:nodetypes="ccccc" />
      <rect
         style="opacity:1;fill:#000000;fill-opacity:1;stroke:none;stroke-width:57.3299675;stroke-linecap:butt;stroke-linejoin:miter;stroke-miterlimit:4;stroke-dasharray:114.659935, 229.31987;stroke-dashoffset:148.48461914;stroke-opacity:1"
         id="rect4522"
         width="925.71436"
         height="97.14286"
         x="-801.88422"
         y="-473.77515"
         transform="matrix(0,-1,1,0,0,0)" />
    </g>
    <g
       transform="matrix(0,1,-1,0,-1212.4015,1100.423)"
       id="g4524">
      <g
         transform="matrix(0,-1.6129886,1,0,-856.92375,1756.7276)"
         id="g4526">
        <path
           style="color:#000000;font-style:normal;font-variant:normal;font-weight:normal;font-stretch:normal;font-size:medium;line-height:normal;font-family:sans-serif;text-indent:0;text-align:start;text-decoration:none;text-decoration-line:none;text-decoration-style:solid;text-decoration-color:#000000;letter-spacing:normal;word-spacing:normal;text-transform:none;direction:ltr;block-progression:tb;writing-mode:lr-tb;baseline-shift:baseline;text-anchor:start;white-space:normal;clip-rule:nonzero;display:inline;overflow:visible;visibility:visible;opacity:1;isolation:auto;mix-blend-mode:normal;color-interpolation:sRGB;color-interpolation-filters:linearRGB;solid-color:#000000;solid-opacity:1;fill:#000000;fill-opacity:1;fill-rule:nonzero;stroke:none;stroke-width:100;stroke-linecap:round;stroke-linejoin:bevel;stroke-miterlimit:4;stroke-dasharray:400, 100;stroke-dashoffset:120;stroke-opacity:1;color-rendering:auto;image-rendering:auto;shape-rendering:auto;text-rendering:auto;enable-background:accumulate"
           d="M 851.1805,76.305151 593.01219,344.77094 724.28064,345.12808 886.53583,182.37117 1049.1704,345.00572 1165.9403,344.88316 921.89118,76.305144 Z"
           id="path4528"
           inkscape:connector-curvature="0"
           sodipodi:nodetypes="cccccccc" />
      </g>
      <g
         id="g4530"
         transform="matrix(0,-1.6129886,-1,0,6.95629,1756.7276)">
        <path
           sodipodi:nodetypes="cccccccc"
           inkscape:connector-curvature="0"
           id="path4532"
           d="M 851.1805,76.305151 593.01219,344.77094 724.28064,345.12808 886.53583,182.37117 1049.1704,345.00572 1165.9403,344.88316 921.89118,76.305144 Z"
           style="color:#000000;font-style:normal;font-variant:normal;font-weight:normal;font-stretch:normal;font-size:medium;line-height:normal;font-family:sans-serif;text-indent:0;text-align:start;text-decoration:none;text-decoration-line:none;text-decoration-style:solid;text-decoration-color:#000000;letter-spacing:normal;word-spacing:normal;text-transform:none;direction:ltr;block-progression:tb;writing-mode:lr-tb;baseline-shift:baseline;text-anchor:start;white-space:normal;clip-rule:nonzero;display:inline;overflow:visible;visibility:visible;opacity:1;isolation:auto;mix-blend-mode:normal;color-interpolation:sRGB;color-interpolation-filters:linearRGB;solid-color:#000000;solid-opacity:1;fill:#000000;fill-opacity:1;fill-rule:nonzero;stroke:none;stroke-width:100;stroke-linecap:round;stroke-linejoin:bevel;stroke-miterlimit:4;stroke-dasharray:400, 100;stroke-dashoffset:120;stroke-opacity:1;color-rendering:auto;image-rendering:auto;shape-rendering:auto;text-rendering:auto;enable-background:accumulate" />
      </g>
      <path
         style="opacity:1;fill:#000000;fill-opacity:1;stroke:none;stroke-width:60;stroke-linecap:butt;stroke-linejoin:miter;stroke-miterlimit:4;stroke-dasharray:none;stroke-dashoffset:34.20000076;stroke-opacity:1"
         d="m -69.34885,822.20783 0,-378.24991 -109.74048,161.16316 0,378.24991 z"
         id="path4534"
         inkscape:connector-curvature="0"
         sodipodi:nodetypes="ccccc" />
      <path
         sodipodi:nodetypes="ccccc"
         inkscape:connector-curvature="0"
         id="path4536"
         d="m -780.6186,822.20783 0,-378.24991 109.74048,161.16316 0,378.24991 z"
         style="opacity:1;fill:#000000;fill-opacity:1;stroke:none;stroke-width:60;stroke-linecap:butt;stroke-linejoin:miter;stroke-miterlimit:4;stroke-dasharray:none;stroke-dashoffset:34.20000076;stroke-opacity:1" />
      <rect
         transform="matrix(0,-1,1,0,0,0)"
         y="-473.77515"
         x="-801.88422"
         height="97.14286"
         width="925.71436"
         id="rect4538"
         style="opacity:1;fill:#000000;fill-opacity:1;stroke:none;stroke-width:57.3299675;stroke-linecap:butt;stroke-linejoin:miter;stroke-miterlimit:4;stroke-dasharray:114.659935, 229.31987;stroke-dashoffset:148.48461914;stroke-opacity:1" />
    </g>
    <g
       id="g4540"
       transform="matrix(0,-1,1,0,858.83287,1289.7115)">
      <g
         id="g4542"
         transform="matrix(1.6129886,0,0,1,-409.12909,-27.929246)">
        <path
           sodipodi:nodetypes="cccccccc"
           inkscape:connector-curvature="0"
           id="path4544"
           d="M 851.1805,76.305151 593.01219,344.77094 724.28064,345.12808 886.53583,182.37117 1049.1704,345.00572 1165.9403,344.88316 921.89118,76.305144 Z"
           style="color:#000000;font-style:normal;font-variant:normal;font-weight:normal;font-stretch:normal;font-size:medium;line-height:normal;font-family:sans-serif;text-indent:0;text-align:start;text-decoration:none;text-decoration-line:none;text-decoration-style:solid;text-decoration-color:#000000;letter-spacing:normal;word-spacing:normal;text-transform:none;direction:ltr;block-progression:tb;writing-mode:lr-tb;baseline-shift:baseline;text-anchor:start;white-space:normal;clip-rule:nonzero;display:inline;overflow:visible;visibility:visible;opacity:1;isolation:auto;mix-blend-mode:normal;color-interpolation:sRGB;color-interpolation-filters:linearRGB;solid-color:#000000;solid-opacity:1;fill:#000000;fill-opacity:1;fill-rule:nonzero;stroke:none;stroke-width:100;stroke-linecap:round;stroke-linejoin:bevel;stroke-miterlimit:4;stroke-dasharray:400, 100;stroke-dashoffset:120;stroke-opacity:1;color-rendering:auto;image-rendering:auto;shape-rendering:auto;text-rendering:auto;enable-background:accumulate" />
      </g>
      <g
         transform="matrix(1.6129886,0,0,-1,-409.12909,835.95079)"
         id="g4546">
        <path
           style="color:#000000;font-style:normal;font-variant:normal;font-weight:normal;font-stretch:normal;font-size:medium;line-height:normal;font-family:sans-serif;text-indent:0;text-align:start;text-decoration:none;text-decoration-line:none;text-decoration-style:solid;text-decoration-color:#000000;letter-spacing:normal;word-spacing:normal;text-transform:none;direction:ltr;block-progression:tb;writing-mode:lr-tb;baseline-shift:baseline;text-anchor:start;white-space:normal;clip-rule:nonzero;display:inline;overflow:visible;visibility:visible;opacity:1;isolation:auto;mix-blend-mode:normal;color-interpolation:sRGB;color-interpolation-filters:linearRGB;solid-color:#000000;solid-opacity:1;fill:#000000;fill-opacity:1;fill-rule:nonzero;stroke:none;stroke-width:100;stroke-linecap:round;stroke-linejoin:bevel;stroke-miterlimit:4;stroke-dasharray:400, 100;stroke-dashoffset:120;stroke-opacity:1;color-rendering:auto;image-rendering:auto;shape-rendering:auto;text-rendering:auto;enable-background:accumulate"
           d="M 851.1805,76.305151 593.01219,344.77094 724.28064,345.12808 886.53583,182.37117 1049.1704,345.00572 1165.9403,344.88316 921.89118,76.305144 Z"
           id="path4548"
           inkscape:connector-curvature="0"
           sodipodi:nodetypes="cccccccc" />
      </g>
      <rect
         style="opacity:1;fill:none;fill-opacity:1;stroke:#000000;stroke-width:57.3299675;stroke-linecap:round;stroke-linejoin:bevel;stroke-miterlimit:4;stroke-dasharray:114.659935, 229.31987;stroke-dashoffset:148.48461914;stroke-opacity:1"
         id="rect4550"
         width="1156.8052"
         height="63.820137"
         x="287.29819"
         y="372.10071"
         ry="0" />
      <path
         sodipodi:nodetypes="ccccc"
         inkscape:connector-curvature="0"
         id="path4552"
         d="m 525.39067,759.64565 378.24991,0 -161.16316,-109.74048 -378.24991,0 z"
         style="opacity:1;fill:#000000;fill-opacity:1;stroke:none;stroke-width:60;stroke-linecap:butt;stroke-linejoin:miter;stroke-miterlimit:4;stroke-dasharray:none;stroke-dashoffset:34.20000076;stroke-opacity:1" />
      <path
         style="opacity:1;fill:#000000;fill-opacity:1;stroke:none;stroke-width:60;stroke-linecap:butt;stroke-linejoin:miter;stroke-miterlimit:4;stroke-dasharray:none;stroke-dashoffset:34.20000076;stroke-opacity:1"
         d="m 525.39067,48.375898 378.24991,0 -161.16316,109.740482 -378.24991,0 z"
         id="path4554"
         inkscape:connector-curvature="0"
         sodipodi:nodetypes="ccccc" />
    </g>
    <rect
       transform="matrix(0,-1,1,0,0,0)"
       ry="0"
       y="2153.0981"
       x="-911.67719"
       height="65.205109"
       width="1078.1902"
       id="rect4563"
       style="opacity:1;fill:none;fill-opacity:1;stroke:#000000;stroke-width:55.94499207;stroke-linecap:round;stroke-linejoin:bevel;stroke-miterlimit:4;stroke-dasharray:167.8349762, 167.8349762;stroke-dashoffset:228.25556946;stroke-opacity:1" />
    <g
       id="g4628"
       transform="matrix(0.75094843,0,0,0.75094843,-769.18753,-144.09043)">
      <g
         transform="matrix(0,-1.6129886,1,0,1079.9027,2203.6129)"
         id="g4596">
        <path
           style="color:#000000;font-style:normal;font-variant:normal;font-weight:normal;font-stretch:normal;font-size:medium;line-height:normal;font-family:sans-serif;text-indent:0;text-align:start;text-decoration:none;text-decoration-line:none;text-decoration-style:solid;text-decoration-color:#000000;letter-spacing:normal;word-spacing:normal;text-transform:none;direction:ltr;block-progression:tb;writing-mode:lr-tb;baseline-shift:baseline;text-anchor:start;white-space:normal;clip-rule:nonzero;display:inline;overflow:visible;visibility:visible;opacity:1;isolation:auto;mix-blend-mode:normal;color-interpolation:sRGB;color-interpolation-filters:linearRGB;solid-color:#000000;solid-opacity:1;fill:#000000;fill-opacity:1;fill-rule:nonzero;stroke:none;stroke-width:100;stroke-linecap:round;stroke-linejoin:bevel;stroke-miterlimit:4;stroke-dasharray:400, 100;stroke-dashoffset:120;stroke-opacity:1;color-rendering:auto;image-rendering:auto;shape-rendering:auto;text-rendering:auto;enable-background:accumulate"
           d="M 851.1805,76.305151 593.01219,344.77094 724.28064,345.12808 886.53583,182.37117 1049.1704,345.00572 1165.9403,344.88316 921.89118,76.305144 Z"
           id="path4598"
           inkscape:connector-curvature="0"
           sodipodi:nodetypes="cccccccc" />
      </g>
      <g
         id="g4600"
         transform="matrix(0,-1.6129886,-1,0,1943.7827,2203.6129)">
        <path
           sodipodi:nodetypes="cccccccc"
           inkscape:connector-curvature="0"
           id="path4602"
           d="M 851.1805,76.305151 593.01219,344.77094 724.28064,345.12808 886.53583,182.37117 1049.1704,345.00572 1165.9403,344.88316 921.89118,76.305144 Z"
           style="color:#000000;font-style:normal;font-variant:normal;font-weight:normal;font-stretch:normal;font-size:medium;line-height:normal;font-family:sans-serif;text-indent:0;text-align:start;text-decoration:none;text-decoration-line:none;text-decoration-style:solid;text-decoration-color:#000000;letter-spacing:normal;word-spacing:normal;text-transform:none;direction:ltr;block-progression:tb;writing-mode:lr-tb;baseline-shift:baseline;text-anchor:start;white-space:normal;clip-rule:nonzero;display:inline;overflow:visible;visibility:visible;opacity:1;isolation:auto;mix-blend-mode:normal;color-interpolation:sRGB;color-interpolation-filters:linearRGB;solid-color:#000000;solid-opacity:1;fill:#000000;fill-opacity:1;fill-rule:nonzero;stroke:none;stroke-width:100;stroke-linecap:round;stroke-linejoin:bevel;stroke-miterlimit:4;stroke-dasharray:400, 100;stroke-dashoffset:120;stroke-opacity:1;color-rendering:auto;image-rendering:auto;shape-rendering:auto;text-rendering:auto;enable-background:accumulate" />
      </g>
      <path
         inkscape:connector-curvature="0"
         id="rect4604"
         d="m 1452.373,1319.5742 3.2325,7.2754 5.1074,6.1074 6.5898,4.4668 7.5645,2.4805 7.9551,0.3047 7.7324,-1.8945 6.9141,-3.9493 5.5605,-5.6972 3.7773,-7.0059 1.7071,-7.7773 0.084,-2.1934 0,-114.6602 -1.1055,-7.8847 -3.2324,-7.2754 -5.1075,-6.1074 -6.5898,-4.4649 -7.5645,-2.4824 -7.955,-0.3047 -7.7325,1.8945 -6.914,3.9493 -5.5606,5.6972 -3.7773,7.0059 -1.707,7.7773 -0.084,2.1953 0,114.6602 z m 0,-343.9785 3.2325,7.27539 5.1074,6.10547 6.5898,4.4668 7.5645,2.48047 7.9551,0.30664 7.7324,-1.89649 6.9141,-3.94726 5.5605,-5.69727 3.7773,-7.00781 1.7071,-7.77539 0.084,-2.19531 0,-114.66016 -1.1055,-7.88476 -3.2324,-7.2754 -5.1075,-6.10546 -6.5898,-4.4668 -7.5645,-2.48242 -7.955,-0.30469 -7.7325,1.89453 -6.914,3.94922 -5.5606,5.69727 -3.7773,7.00781 -1.707,7.77539 -0.084,2.19531 0,114.66016 z m 0,-343.98047 3.2325,7.27539 5.1074,6.10743 6.5898,4.46484 7.5645,2.48242 7.9551,0.30469 7.7324,-1.89453 6.9141,-3.94922 5.5605,-5.69727 3.7773,-7.00781 1.7071,-7.77539 0.084,-2.19531 0,-114.66016 -1.1055,-7.88281 -3.2324,-7.27734 -5.1075,-6.10547 -6.5898,-4.4668 -7.5645,-2.48047 -7.955,-0.30469 -7.7325,1.89454 -6.914,3.94726 -5.5606,5.69922 -3.7773,7.00586 -1.707,7.77734 -0.084,2.19336 0,114.66016 z m 63.8204,880.05857 3.2304,7.2754 5.1094,6.1055 6.5898,4.4668 7.5645,2.4824 7.9551,0.3047 7.7324,-1.8945 6.9141,-3.9493 5.5605,-5.6972 3.7774,-7.0078 1.707,-7.7754 0.084,-2.1953 0,-114.6602 -1.1055,-7.8848 -3.2324,-7.2753 -5.1074,-6.1055 -6.5899,-4.4668 -7.5644,-2.4805 -7.9551,-0.3066 -7.7324,1.8965 -6.9141,3.9472 -5.5606,5.6973 -3.7792,7.0078 -1.7051,7.7754 -0.084,2.1953 0,114.6602 z m 0,-343.9804 3.2304,7.2754 5.1094,6.1074 6.5898,4.4648 7.5645,2.4824 7.9551,0.3047 7.7324,-1.8945 6.9141,-3.9492 5.5605,-5.6973 3.7774,-7.0059 1.707,-7.7773 0.084,-2.1953 0,-114.6602 -1.1055,-7.8828 -3.2324,-7.2754 -5.1074,-6.1074 -6.5899,-4.4668 -7.5644,-2.4805 -7.9551,-0.3046 -7.7324,1.8945 -6.9141,3.9492 -5.5606,5.6973 -3.7792,7.0058 -1.7051,7.7774 -0.084,2.1933 0,114.6602 z m 0,-343.98051 3.2304,7.27734 5.1094,6.10547 6.5898,4.4668 7.5645,2.48047 7.9551,0.30469 7.7324,-1.89454 6.9141,-3.94726 5.5605,-5.69727 3.7774,-7.00781 1.707,-7.77734 0.084,-2.19336 0,-114.66016 -1.1055,-7.88476 -3.2324,-7.27539 -5.1074,-6.10743 -6.5899,-4.46484 -7.5644,-2.48242 -7.9551,-0.30469 -7.7324,1.89453 -6.9141,3.94922 -5.5606,5.69727 -3.7792,7.00781 -1.7051,7.77539 -0.084,2.19531 0,114.66016 z m 0,-343.97851 3.2304,7.27539 5.1094,6.10546 6.5898,4.4668 7.5645,2.48242 7.9551,0.30469 7.7324,-1.89453 6.9141,-3.94922 5.5605,-5.69727 3.7774,-7.00781 1.707,-7.77539 0.084,-2.19531 0,-114.66016 -1.1055,-7.88281 -3.2324,-7.27734 -5.1074,-6.10547 -6.5899,-4.4668 -7.5644,-2.48047 -7.9551,-0.30664 -7.7324,1.89649 -6.9141,3.94726 -5.5606,5.69727 -3.7792,7.00781 -1.7051,7.77539 -0.084,2.19531 0,114.66016 z"
         style="color:#000000;font-style:normal;font-variant:normal;font-weight:normal;font-stretch:normal;font-size:medium;line-height:normal;font-family:sans-serif;text-indent:0;text-align:start;text-decoration:none;text-decoration-line:none;text-decoration-style:solid;text-decoration-color:#000000;letter-spacing:normal;word-spacing:normal;text-transform:none;direction:ltr;block-progression:tb;writing-mode:lr-tb;baseline-shift:baseline;text-anchor:start;white-space:normal;clip-rule:nonzero;display:inline;overflow:visible;visibility:visible;opacity:1;isolation:auto;mix-blend-mode:normal;color-interpolation:sRGB;color-interpolation-filters:linearRGB;solid-color:#000000;solid-opacity:1;fill:#000000;fill-opacity:1;fill-rule:nonzero;stroke:none;stroke-width:57.3299675;stroke-linecap:round;stroke-linejoin:bevel;stroke-miterlimit:4;stroke-dasharray:114.659935, 229.31987;stroke-dashoffset:148.48461914;stroke-opacity:1;color-rendering:auto;image-rendering:auto;shape-rendering:auto;text-rendering:auto;enable-background:accumulate" />
      <path
         style="opacity:1;fill:#000000;fill-opacity:1;stroke:none;stroke-width:60;stroke-linecap:butt;stroke-linejoin:miter;stroke-miterlimit:4;stroke-dasharray:none;stroke-dashoffset:34.20000076;stroke-opacity:1"
         d="m 1867.4776,1269.0931 0,-378.24988 -109.7405,161.16318 0,378.2499 z"
         id="path4606"
         inkscape:connector-curvature="0"
         sodipodi:nodetypes="ccccc" />
      <path
         sodipodi:nodetypes="ccccc"
         inkscape:connector-curvature="0"
         id="path4608"
         d="m 1156.2078,1269.0931 0,-378.24988 109.7405,161.16318 0,378.2499 z"
         style="opacity:1;fill:#000000;fill-opacity:1;stroke:none;stroke-width:60;stroke-linecap:butt;stroke-linejoin:miter;stroke-miterlimit:4;stroke-dasharray:none;stroke-dashoffset:34.20000076;stroke-opacity:1" />
    </g>
  </g>
</svg>
